<?xml version="1.0" encoding="UTF-8"?>
<svg width="163px" height="250px" viewBox="0 0 163 250" version="1.1" xmlns="http://www.w3.org/2000/svg" xmlns:xlink="http://www.w3.org/1999/xlink">
    <!-- Generator: Sketch 63.1 (92452) - https://sketch.com -->
    <title>Group 53</title>
    <desc>Created with Sketch.</desc>
    <defs>
        <polygon id="path-1" points="0.6717 0.7137 212.3591 0.7137 212.3591 126.522 0.6717 126.522"></polygon>
    </defs>
    <g id="Page-1" stroke="none" stroke-width="1" fill="none" fill-rule="evenodd">
        <g id="Group-53" transform="translate(81.500000, 125.000000) rotate(-90.000000) translate(-81.500000, -125.000000) translate(-43.500000, 43.500000)">
            <rect id="Rectangle" fill="#FFFFFF" x="0.5" y="0.5" width="249" height="162"></rect>
            <g id="Group-34" transform="translate(28.000000, 18.000000)">
                <mask id="mask-2" fill="white">
                    <use xlink:href="#path-1"></use>
                </mask>
                <g id="Clip-32"></g>
                <path d="M147.8422,33.6729 L188.1651,33.6729 C188.1651,33.6729 196.2291,33.6729 196.2291,41.7379 L196.2291,82.0609 C196.2291,82.0609 196.2291,90.1249 188.1651,90.1249 L147.8422,90.1249 L131.7122,106.2549 C131.7122,106.2549 123.6482,106.2549 123.6482,98.1899 L123.6482,25.6099 C123.6482,17.5439 131.7122,17.5439 131.7122,17.5439 L147.8422,33.6729 Z M106.7731,126.522 C106.7731,126.522 106.7057,121.361 114.3321,120.7796 L201.3326,120.7796 C201.3326,120.7796 212.3591,120.7488 212.3591,109.7075 L212.3591,16.5816 C212.3591,6.9818 202.7583,6.8587 202.7583,6.8587 L115.8868,6.8587 C115.8471,6.8528 115.8084,6.8349 115.7677,6.8349 C106.7642,6.8349 106.7731,0.7135 106.7731,0.7135 L106.7731,6.8587 L106.7642,6.8587 L106.7642,120.7796 L106.7731,120.7796 L106.7731,126.522 Z" id="Fill-31" fill-opacity="0.75" fill="#1B1464" mask="url(#mask-2)"></path>
                <path d="M47.8477,0.8679 C47.8477,0.8679 44.1719,6.8038 36.971,6.8038 C34.3607,6.8038 23.117,6.8048 15.2425,6.8048 C8.9692,13.5998 4.212,20.3959 0.6711,27.0967 C14.2186,27.2088 25.1776,43.5144 25.1776,63.6198 C25.1776,83.2163 14.7623,99.2074 1.687,100.1033 C8.0674,112.7737 15.2276,120.555 15.2276,120.555 L36.9908,120.555 C43.6083,120.555 47.2395,125.5563 47.7852,126.3708 C16.183,62.0324 47.8477,0.8679 47.8477,0.8679" id="Fill-33" fill-opacity="0.75" fill="#1B1464" mask="url(#mask-2)"></path>
            </g>
            <path d="M41.5205,19.0452 L39.8101,20.8975 C34.6064,26.5347 22.7009,45.2333 22.5818,45.4218 L22.2286,45.9784 L21.6056,46.2006 C20.8932,46.4616 4.0003,52.965 4.0003,81.6195 C4.0003,110.415 22.6681,117.0732 22.8566,117.1386 L23.4896,117.352 L23.8537,117.9145 C29.8829,127.2306 38.9926,141.2781 39.8637,142.5371 L41.4997,144.316 L65.7909,144.316 C66.2056,144.3289 74.5117,144.692 78.9812,153.1598 L81.659,158.424 L135.082,158.424 C135.7566,154.2124 138.7915,144.5412 152.4094,144.5412 L229.3538,144.5412 C236.0893,144.5213 246.1197,140.023 246.1197,127.7078 L246.1197,34.5819 C246.1197,23.3659 236.9783,19.1771 230.833,19.0987 L152.4094,19.0978 C139.871,19.0978 135.6296,10.8601 134.9202,4.8588 L81.5568,4.8141 L78.6578,10.252 C74.225,18.4608 64.5329,19.0571 61.6686,19.0442 L41.5205,19.0452 Z M0.1598,81.6195 C0.1598,52.96 16.1648,44.3791 19.6709,42.8443 C21.6859,39.6943 31.9911,23.7072 36.9885,18.2931 L39.8389,15.2046 L61.6021,15.2037 C64.01,15.2146 71.8597,14.7572 75.2736,8.4364 L79.2521,0.9716 L138.6913,1.0212 L138.6487,2.9836 C138.6487,4.2565 139.0346,15.2572 152.4094,15.2572 L230.8568,15.2592 C238.5508,15.3564 249.9602,20.5859 249.9602,34.5819 L249.9602,127.7078 C249.9602,142.8337 237.639,148.3569 229.3597,148.3817 L152.4094,148.3817 C138.8858,148.3817 138.73,159.8546 138.73,160.3428 L138.73,162.2635 L79.3066,162.2635 L75.5723,154.9277 C72.1822,148.5087 65.9814,148.1664 65.7195,148.1545 L39.8141,148.1565 L36.9627,145.0561 C36.8238,144.9073 36.5668,144.6265 20.9676,120.5248 C17.3007,119.0068 0.1598,110.3783 0.1598,81.6195 L0.1598,81.6195 Z" id="Fill-35" fill="#1B1464"></path>
            <path d="M33.7648,69.2798 C33.4017,69.377 32.9254,69.4246 32.3411,69.4246 C31.7567,69.4246 31.0523,69.251 30.2278,68.9057 L29.1345,68.4454 L23.1232,69.5675 L30.5721,73.3366 C31.6089,73.8336 32.6804,74.1412 33.7935,74.2563 L33.7935,77.9083 C33.4284,77.9847 33.0465,78.0234 32.6427,78.0234 C31.5682,78.0234 30.457,77.7158 29.3072,77.1027 L18.492,71.2928 L18.492,66.8342 L24.3604,65.7419 L18.492,62.8945 L18.492,58.1491 L33.7648,55.2442 L33.7648,59.4429 L23.0369,61.0838 L30.5433,64.7349 C31.5791,65.2329 32.6526,65.5395 33.7648,65.6555 L33.7648,69.2798 Z" id="Fill-37" fill="#1B1464"></path>
            <path d="M27.1212,82.7394 C27.0438,83.2186 27.0051,83.6472 27.0051,84.0202 C27.0051,84.3952 27.0111,84.6909 27.019,84.9121 C27.0289,85.1334 27.0726,85.4489 27.149,85.8616 C27.2254,86.2733 27.3405,86.6344 27.4942,86.939 C27.898,87.8419 28.5876,88.2923 29.5648,88.2923 C29.9884,88.2923 30.3029,88.1425 30.5153,87.8458 C30.7256,87.5482 30.8308,86.9976 30.8308,86.192 C30.8308,85.1959 30.6403,84.4964 30.2553,84.0916 C30.1015,83.9398 29.9815,83.8099 29.8962,83.7057 C29.8099,83.5985 29.6521,83.4934 29.4209,83.3882 C29.1918,83.2811 29.0281,83.2116 28.9328,83.1729 C28.8366,83.1342 28.6342,83.0757 28.3286,83.0003 C28.0221,82.9239 27.6202,82.8346 27.1212,82.7394 M24.0734,85.4151 C24.0734,84.0539 24.2063,83.0568 24.4742,82.4249 C24.0327,82.3475 23.5972,82.3088 23.1666,82.3088 C22.733,82.3088 22.3927,82.406 22.1447,82.5955 C21.7419,82.9239 21.5316,83.6035 21.5117,84.6393 L21.5117,85.559 C21.5117,87.1126 21.6744,88.8866 22.0018,90.8798 L19.1237,90.3906 C18.5304,88.4361 18.2327,86.3269 18.2327,84.0638 C18.2327,83.5271 18.2526,82.9814 18.2913,82.4249 C18.4262,79.6449 20.2081,78.254 23.6408,78.254 C24.6578,78.254 25.7431,78.3641 26.9049,78.5843 C28.0637,78.8056 28.9814,79.0268 29.6521,79.2461 C30.3238,79.4663 30.9617,79.757 31.5649,80.1231 C32.1691,80.4862 32.6325,80.9466 32.9599,81.5052 C33.6871,82.655 34.0522,84.3039 34.0522,86.4509 C34.0522,90.4015 32.7198,92.3769 30.0529,92.3769 C28.9814,92.3769 28.0508,92.1804 27.2651,91.7866 C26.4793,91.3937 25.8939,90.9284 25.511,90.3906 C24.5516,89.1078 24.0734,87.449 24.0734,85.4151" id="Fill-38" fill="#1B1464"></path>
            <path d="M21.7711,100.9455 C21.7711,101.6737 22.0965,102.2461 22.7493,102.6589 C23.4011,103.0706 24.3982,103.3811 25.7396,103.5915 C27.0829,103.8028 28.0274,103.9099 28.5721,103.9099 C29.1197,103.9099 29.5265,103.8693 29.7954,103.7939 C30.4859,103.6212 30.8312,103.141 30.8312,102.3573 C30.8312,100.9941 30.6397,99.7867 30.2557,98.733 L22.6918,97.5236 C22.0776,98.3878 21.7711,99.5267 21.7711,100.9455 M33.995,103.8226 C33.995,106.1809 32.7966,107.5332 30.3996,107.8784 C29.844,107.9558 29.3737,107.9935 28.9888,107.9935 C27.954,107.9935 26.7654,107.8784 25.4241,107.6483 C22.9497,107.2455 21.149,106.5936 20.017,105.6928 C18.884,104.7909 18.3195,103.4674 18.3195,101.7243 C18.3195,100.7649 18.497,99.872 18.8522,99.0485 C19.2054,98.2231 19.6023,97.5732 20.0458,97.093 L18.4921,96.1416 L18.4921,92.8368 L41.0699,96.4015 L41.0699,100.3998 L32.989,99.1358 C33.6587,100.6885 33.995,102.2511 33.995,103.8226" id="Fill-39" fill="#1B1464"></path>
            <path d="M209.3691,66.7065 C208.9683,65.6668 208.8899,65.0268 207.1289,64.3462 C205.5762,63.746 195.4882,61.3768 195.4882,61.3768 L208.9177,61.3768 C208.9177,61.3768 212.7572,61.3768 212.7572,65.2183 L212.7572,79.9474 C212.7572,79.9474 209.6379,67.404 209.3691,66.7065 M216.5977,96.4227 L216.5977,62.8154 C216.5977,60.1753 214.4379,58.0155 211.7978,58.0155 L186.8319,58.0155 C184.1919,58.0155 182.032,60.1753 182.032,62.8154 L182.032,96.4227 C182.032,99.0637 184.1919,101.2236 186.8319,101.2236 L211.7978,101.2236 C214.4379,101.2236 216.5977,99.0637 216.5977,96.4227" id="Fill-40" fill="#1B1464"></path>
            <path d="M80.0711,43.0674 C82.2141,33.6988 85.1488,24.467 88.8752,15.4714 L123.4924,15.4714 L123.4924,25.4899 C114.2528,25.4155 105.0131,25.3411 95.7734,25.2657 C93.8229,31.1877 92.0341,37.1662 90.4418,43.1875 C86.9852,43.1468 83.5276,43.1071 80.0711,43.0674" id="Fill-41" fill="#1B1464"></path>
            <path d="M78.7738,49.2576 C93.6795,49.4193 108.5862,49.58 123.4919,49.7408 L123.4919,66.8053 C112.0368,69.6418 100.3932,72.516 88.7268,75.4319 C100.2374,78.4062 111.881,81.34 123.4919,84.232 L123.4919,101.2956 C107.9552,101.4136 92.4195,101.5317 76.8828,101.6498 C76.4869,98.2607 76.1922,94.8636 75.9978,91.4616 C88.2446,91.413 100.4914,91.3644 112.7362,91.3168 C112.7322,90.9517 112.7283,90.5876 112.7233,90.2235 C101.1234,87.0318 89.4232,83.7935 77.8283,80.5086 C77.8491,77.1046 77.9672,73.7016 78.1795,70.3045 C89.9114,67.0811 101.5748,63.9063 112.9674,60.7672 C112.9773,60.4021 112.9872,60.039 112.9981,59.6759 C101.05,59.5757 89.1018,59.4765 77.1536,59.3773 C77.5941,55.9921 78.1328,52.6179 78.7738,49.2576" id="Fill-42" fill="#1B1464"></path>
            <path d="M99.9785,131.4592 C99.4487,128.4332 98.9675,125.3973 98.5359,122.3515 C95.0486,122.3922 91.5623,122.4328 88.0739,122.4735 C88.6871,125.5183 89.3697,128.5483 90.1207,131.5634 C90.6594,133.7173 91.4412,135.2967 92.3966,136.3156 C93.359,137.3336 94.7321,137.8336 96.5338,137.8187 C99.6024,137.7939 100.7047,135.6847 99.9785,131.4592 M116.4706,130.9939 C116.3188,128.0483 116.1799,125.0987 116.0549,122.1471 L105.8439,122.2662 C106.1425,125.2405 106.4739,128.209 106.838,131.1695 C107.3182,134.9227 109.1269,136.777 112.1767,136.7522 C115.2304,136.7274 116.6521,134.8086 116.4706,130.9939 M123.4919,112.0393 L123.4919,131.4265 C123.4869,136.5577 122.6674,140.4141 121.2129,142.9817 C119.7436,145.5504 117.4806,146.8272 114.2294,146.8302 C112.2759,146.8322 110.6746,146.4274 109.3838,145.6178 C108.0931,144.8082 106.8102,143.4302 105.5185,141.4807 C105.208,143.6326 104.5581,145.214 103.5452,146.2379 C102.5292,147.2588 100.9726,147.7648 98.8018,147.7648 C95.4554,147.7628 92.5028,146.4056 89.8112,143.6931 C87.1423,140.9767 84.8039,137.149 83.2651,132.1408 C81.2888,125.6741 79.7014,119.1201 78.5009,112.5136 C93.4979,112.3548 108.4949,112.1971 123.4919,112.0393" id="Fill-43" fill="#1B1464"></path>
        </g>
    </g>
</svg>